HIERARCHY
ROOT Hips
{
	OFFSET 0.00000 0.00000 0.00000
	CHANNELS 6 Xposition Yposition Zposition Zrotation Yrotation Xrotation 
	JOINT LHipJoint
	{
		OFFSET 0 0 0
		CHANNELS 3 Zrotation Yrotation Xrotation
		JOINT LeftUpLeg
		{
			OFFSET 1.86795 -1.59681 0.65681
			CHANNELS 3 Zrotation Yrotation Xrotation
			JOINT LeftLeg
			{
				OFFSET 2.30491 -6.33268 0.00000
				CHANNELS 3 Zrotation Yrotation Xrotation
				JOINT LeftFoot
				{
					OFFSET 2.46780 -6.78022 0.00000
					CHANNELS 3 Zrotation Yrotation Xrotation
					JOINT LeftToeBase
					{
						OFFSET 0.07897 -0.21698 1.59652
						CHANNELS 3 Zrotation Yrotation Xrotation
						End Site
						{
							OFFSET 0.00000 -0.00000 0.82310
						}
					}
				}
			}
		}
	}
	JOINT RHipJoint
	{
		OFFSET 0 0 0
		CHANNELS 3 Zrotation Yrotation Xrotation
		JOINT RightUpLeg
		{
			OFFSET -1.93650 -1.59681 0.65681
			CHANNELS 3 Zrotation Yrotation Xrotation
			JOINT RightLeg
			{
				OFFSET -2.29410 -6.30299 0.00000
				CHANNELS 3 Zrotation Yrotation Xrotation
				JOINT RightFoot
				{
					OFFSET -2.48738 -6.83403 0.00000
					CHANNELS 3 Zrotation Yrotation Xrotation
					JOINT RightToeBase
					{
						OFFSET -0.08699 -0.23899 1.89395
						CHANNELS 3 Zrotation Yrotation Xrotation
						End Site
						{
							OFFSET -0.00000 -0.00000 0.96904
						}
					}
				}
			}
		}
	}
	JOINT LowerBack
	{
		OFFSET 0 0 0
		CHANNELS 3 Zrotation Yrotation Xrotation
		JOINT Spine
		{
			OFFSET 0.03629 1.99740 -0.07548
			CHANNELS 3 Zrotation Yrotation Xrotation
			JOINT Spine1
			{
				OFFSET 0.03970 1.94298 0.17218
				CHANNELS 3 Zrotation Yrotation Xrotation
				JOINT Neck
				{
					OFFSET 0 0 0
					CHANNELS 3 Zrotation Yrotation Xrotation
					JOINT Neck1
					{
						OFFSET -0.05054 1.79469 0.04241
						CHANNELS 3 Zrotation Yrotation Xrotation
						JOINT Head
						{
							OFFSET 0.05195 1.78475 -0.22133
							CHANNELS 3 Zrotation Yrotation Xrotation
							End Site
							{
								OFFSET 0.02420 1.80711 -0.07950
							}
						}
					}
				}
				JOINT LeftShoulder
				{
					OFFSET 0 0 0
					CHANNELS 3 Zrotation Yrotation Xrotation
					JOINT LeftArm
					{
						OFFSET 2.92134 1.19850 0.36056
						CHANNELS 3 Zrotation Yrotation Xrotation
						JOINT LeftForeArm
						{
							OFFSET 4.84137 -0.00000 0.00000
							CHANNELS 3 Zrotation Yrotation Xrotation
							JOINT LeftHand
							{
								OFFSET 3.24520 -0.00000 -0.00000
								CHANNELS 3 Zrotation Yrotation Xrotation
								JOINT LeftFingerBase
								{
									OFFSET 0 0 0
									CHANNELS 3 Zrotation Yrotation Xrotation
									JOINT LeftHandIndex1
									{
										OFFSET 0.52122 -0.00000 0.00000
										CHANNELS 3 Zrotation Yrotation Xrotation
										End Site
										{
											OFFSET 0.42022 -0.00000 0.00000
										}
									}
								}
								JOINT LThumb
								{
									OFFSET 0 0 0
									CHANNELS 3 Zrotation Yrotation Xrotation
									End Site
									{
										OFFSET 0.42664 -0.00000 0.42664
									}
								}
							}
						}
					}
				}
				JOINT RightShoulder
				{
					OFFSET 0 0 0
					CHANNELS 3 Zrotation Yrotation Xrotation
					JOINT RightArm
					{
						OFFSET -2.84327 1.20795 0.50191
						CHANNELS 3 Zrotation Yrotation Xrotation
						JOINT RightForeArm
						{
							OFFSET -4.72284 -0.00000 0.00000
							CHANNELS 3 Zrotation Yrotation Xrotation
							JOINT RightHand
							{
								OFFSET -3.23459 -0.00000 0.00000
								CHANNELS 3 Zrotation Yrotation Xrotation
								JOINT RightFingerBase
								{
									OFFSET 0 0 0
									CHANNELS 3 Zrotation Yrotation Xrotation
									JOINT RightHandIndex1
									{
										OFFSET -0.30742 -0.00000 0.00000
										CHANNELS 3 Zrotation Yrotation Xrotation
										End Site
										{
											OFFSET -0.24785 -0.00000 0.00000
										}
									}
								}
								JOINT RThumb
								{
									OFFSET 0 0 0
									CHANNELS 3 Zrotation Yrotation Xrotation
									End Site
									{
										OFFSET -0.25163 -0.00000 0.25163
									}
								}
							}
						}
					}
				}
			}
		}
	}
}
MOTION
Frames: 13
Frame Time: 0.0206186
0.00 0.00 0.00 2.7034 -19.4529 33.1646 0.0000 0.0000 0.0000 -2.3096 -19.4363 -62.8039 8.2659 16.3114 53.5150 -0.0566 6.8415 3.2460 0.1610 2.5852 7.1259 0.0000 0.0000 0.0000 6.1579 17.6281 -75.7074 -10.3928 -17.6249 60.7932 -0.3054 10.6083 19.0729 -1.3627 7.3888 -20.8723 0.0506 -0.1652 14.9871 0.0647 -0.2040 -3.1278 0.0932 -0.0968 -11.8933 -5.8321 0.0113 -13.0093 9.2030 -0.0639 9.5851 3.8383 0.3743 5.0114 0.0000 -0.0000 0.0000 -75.1635 -26.4386 37.5206 42.9940 -49.7470 -20.6962 -0.0000 -0.0000 60.6630 39.8488 52.2436 33.4194 -7.1250 0.0000 -0.0000 -72.8337 87.5242 -70.4512 0.0000 -0.0000 0.0000 76.7196 35.2366 39.6231 -40.5133 48.3711 -18.8220 0.0000 0.0000 15.2067 -53.8053 37.2028 -39.5667 7.1250 -0.0000 -0.0000 -9.8205 21.5160 -12.8809
0.00 0.00 0.00 6.1776 -32.8720 24.3088 0.0000 0.0000 0.0000 -7.6617 -17.8865 -51.7599 9.8360 17.3166 58.9389 0.9829 14.8364 19.1960 0.1897 2.8048 7.7357 0.0000 0.0000 0.0000 5.9359 22.2517 -63.9905 -10.2418 -17.5436 60.2935 -1.6163 7.8779 27.9808 -0.0106 -0.6657 1.8293 0.7235 -0.5533 12.9654 0.1618 -0.6010 -3.6348 -0.0979 -0.3296 -11.2702 -7.0958 -0.4800 -12.8042 8.4784 -0.5809 12.5338 3.8199 0.0268 5.9328 0.0000 -0.0000 0.0000 -75.9286 -21.4494 37.8557 43.5721 -50.0495 -21.1383 -0.0000 -0.0000 59.9450 41.6798 50.7343 34.5790 -7.1250 0.0000 -0.0000 -38.8959 88.1775 -37.7373 0.0000 -0.0000 0.0000 78.7421 32.0749 48.1018 -38.6113 47.2253 -17.4129 0.0000 0.0000 14.1742 -49.3395 35.9104 -34.3270 7.1250 -0.0000 -0.0000 -8.1030 17.6338 -10.2605
0.00 0.00 0.00 3.8784 -46.2998 19.4716 0.0000 0.0000 0.0000 -4.5483 -23.8906 -62.0921 5.2666 13.6779 41.9621 0.8683 0.3523 17.4985 0.3279 3.6802 10.1785 0.0000 0.0000 0.0000 13.3166 22.1344 -52.0194 -9.8771 -17.3402 59.0770 -0.8745 14.3484 28.0356 -0.0075 -0.5604 1.5400 3.4313 0.2204 11.6441 0.9439 0.9343 -3.9673 -1.1079 0.2472 -10.8221 -7.3427 0.2144 -12.2780 8.0131 0.3704 13.8650 3.8099 0.4235 6.1811 0.0000 -0.0000 0.0000 -75.6392 -19.2004 34.8244 43.8156 -50.1749 -21.3252 -0.0000 -0.0000 59.9763 38.8336 49.5886 31.5051 -7.1250 0.0000 -0.0000 -26.3281 86.0260 -24.5111 0.0000 -0.0000 0.0000 76.8323 30.4298 54.0427 -38.3449 47.0582 -17.2176 0.0000 0.0000 13.3598 -50.7058 35.0735 -35.0766 7.1250 -0.0000 -0.0000 -9.0799 17.4543 -11.5036
0.00 0.00 0.00 2.8590 -51.5711 18.8406 0.0000 0.0000 0.0000 5.6682 -30.4500 -62.5672 2.8956 10.5242 30.6914 3.3575 11.4945 33.1366 2.1732 9.2179 26.4793 0.0000 0.0000 0.0000 14.4713 23.0550 -47.9508 -9.5589 -17.1542 58.0035 -2.4226 6.8491 32.4482 -2.1477 -9.1672 26.3198 3.3658 0.9781 11.7277 0.7380 1.9167 -3.6892 -1.4946 0.7221 -10.5105 -6.6216 0.1801 -12.7642 8.3389 0.0691 15.3039 3.8050 0.3468 6.7472 -0.0000 0.0000 0.0000 -74.6305 -19.1938 36.3166 44.2808 -50.4112 -21.6831 -0.0000 -0.0000 59.1773 38.3978 51.1281 31.6756 -7.1250 0.0000 -0.0000 -47.3973 86.6389 -44.8726 -0.0000 0.0000 0.0000 76.9936 30.1491 53.3416 -37.8181 46.7227 -16.8330 0.0000 0.0000 13.0746 -50.1334 34.8327 -34.3696 7.1250 -0.0000 -0.0000 -8.8768 16.8890 -11.1837
0.00 0.00 0.00 10.2320 -70.2391 16.2275 0.0000 0.0000 0.0000 -10.2686 -23.1851 -61.0763 7.2114 15.5074 49.6694 3.1249 -0.0317 33.5557 0.5201 4.6221 12.8339 0.0000 0.0000 0.0000 6.7036 31.0424 -36.8225 -8.9767 -16.7927 56.0095 -1.6746 12.4630 31.6781 -0.6842 -5.2885 14.7332 1.4867 0.4175 11.5775 0.2443 0.8167 -3.9974 -0.7436 0.2956 -10.8279 -7.0537 -0.1943 -12.2581 8.5749 -0.4390 15.0455 3.8974 0.0768 6.6175 0.0000 0.0000 0.0000 -74.4113 -23.0287 37.2962 43.7513 -50.1419 -21.2758 -0.0000 -0.0000 59.8722 37.6544 50.5352 30.7823 -7.1250 0.0000 -0.0000 -39.3910 85.9995 -36.7824 0.0000 0.0000 0.0000 76.1754 30.0728 54.2830 -40.3442 48.2725 -18.6957 0.0000 0.0000 8.1539 -52.9540 33.7027 -36.3206 7.1250 -0.0000 -0.0000 -10.6934 17.2243 -13.5750
0.00 0.00 0.00 10.3824 -73.6925 15.6865 0.0000 0.0000 0.0000 -10.9149 -22.2386 -58.2367 7.7290 15.9163 51.5805 2.5463 -2.2722 31.0487 0.0218 0.9539 2.6219 0.0000 0.0000 0.0000 7.5562 28.1480 -40.2595 -10.3540 -17.6042 60.6651 -5.1009 0.5896 43.1900 -2.2290 -9.3276 26.8254 -0.4323 0.7923 11.3686 -0.1272 0.9770 -4.0822 -0.0935 0.4887 -10.8190 -5.8309 -0.0947 -12.1431 8.7497 -0.6481 15.7887 3.7433 0.0522 6.8505 -0.0000 0.0000 0.0000 -73.5768 -22.6636 37.8065 42.8045 -49.6464 -20.5516 -0.0000 -0.0000 60.5291 37.7908 50.6099 30.9335 -7.1250 0.0000 -0.0000 -40.2199 86.1066 -37.6392 -0.0000 0.0000 0.0000 77.7738 29.1249 52.9188 -40.0628 48.1071 -18.4860 0.0000 0.0000 12.1969 -50.0266 35.7076 -34.8465 7.1250 -0.0000 -0.0000 -8.5168 17.7739 -10.8072
0.00 0.00 0.00 -31.2117 -87.3397 55.7653 0.0000 0.0000 0.0000 -5.5594 -24.1195 -52.7324 9.0579 16.8448 56.2902 2.5530 12.2841 28.8402 0.1390 2.4030 6.6209 0.0000 0.0000 0.0000 4.4469 27.2882 -60.6028 -6.1852 -14.6055 45.7207 -0.8775 0.4438 17.8700 -0.0148 -0.7854 2.1584 -1.2745 1.9688 12.7796 -0.6388 2.3574 -3.1452 -0.4842 1.1822 -10.6286 -3.7709 2.1490 -10.2798 7.7485 2.1931 14.5734 3.2535 1.4064 5.9570 0.0000 0.0000 0.0000 -70.8193 -22.6642 36.5415 44.1556 -50.3480 -21.5867 -0.0000 -0.0000 60.7389 39.6067 53.0273 33.4680 -7.1250 0.0000 -0.0000 -87.8262 87.2544 -85.0769 0.0000 0.0000 0.0000 81.7724 30.6818 59.6920 -38.9299 47.4230 -17.6472 0.0000 0.0000 11.0027 -47.3770 35.0111 -31.9407 7.1250 -0.0000 -0.0000 -7.4240 15.6610 -9.2177
0.00 0.00 0.00 4.1395 -75.8726 18.6430 0.0000 0.0000 0.0000 0.7270 -30.7691 -47.2980 10.5854 17.7262 61.4277 2.7035 14.3217 29.8521 1.2878 7.1908 20.2819 0.0000 0.0000 0.0000 9.8200 18.8224 -61.0608 -8.3863 -16.3961 53.9423 -1.3972 6.4057 25.4636 -0.5234 4.6366 -12.8750 2.1511 2.0713 15.9359 -4.1872 2.6965 -0.7591 -6.4299 1.0397 -9.4885 -3.8256 3.6167 -10.0199 8.6708 4.2439 11.9214 3.6234 2.4592 4.9384 0.0000 0.0000 0.0000 -81.5963 -32.9639 44.1740 41.1018 -48.7093 -19.2630 -0.0000 -0.0000 65.1300 35.7602 52.3445 29.6899 -7.1250 0.0000 -0.0000 -62.4968 85.6540 -58.5664 0.0000 0.0000 0.0000 35.6417 51.3925 78.3406 -48.1017 52.2006 -24.6661 0.0000 -0.0000 -8.1139 -40.3396 27.9569 -21.7092 7.1250 -0.0000 -0.0000 -5.6833 4.7175 -6.1608
0.00 0.00 0.00 0.5508 -46.7757 20.9248 0.0000 0.0000 0.0000 7.9435 -29.9619 -54.6313 9.7978 17.2946 58.8105 2.9718 12.9603 31.1749 4.4485 12.7344 38.3822 0.0000 0.0000 0.0000 14.6223 12.1508 -60.1797 -10.2535 -17.5500 60.3323 -1.2008 2.5921 21.7816 -2.3638 9.5860 -27.6462 3.4304 0.9785 17.6340 -1.7874 1.8339 -2.0677 -4.4454 0.5435 -12.0817 6.2353 20.2052 -4.1834 -10.3511 27.4315 4.9935 -2.1353 13.3895 4.4192 -0.0000 0.0000 0.0000 -83.6601 -22.6488 -1.1080 58.8362 -55.9918 -33.3746 -0.0000 -0.0000 55.1661 36.1789 52.7459 30.2039 -7.1250 0.0000 -0.0000 -68.6836 85.8773 -64.7844 -0.0000 0.0000 0.0000 37.3469 39.4463 64.3426 -54.4500 54.6398 -29.7669 0.0000 0.0000 1.1792 -38.6910 31.3480 -22.6192 7.1250 -0.0000 -0.0000 -3.9282 7.9072 -4.4410
0.00 0.00 0.00 -5.2879 14.3979 21.6918 0.0000 0.0000 0.0000 -15.8706 -9.4444 -56.7543 7.2379 15.5290 49.7683 -0.0412 14.3769 9.6090 1.7669 8.3626 23.8209 0.0000 0.0000 0.0000 23.3053 -0.7638 -43.4473 -7.7308 -15.9176 51.5870 -0.3660 -30.4718 23.5135 -0.0874 1.9072 -5.2494 1.4880 3.3180 11.1847 -1.6413 4.5504 -5.1479 -3.5742 1.9813 -11.6323 4.9802 14.8580 -8.5954 -2.3506 19.3961 0.6575 -0.5338 9.6473 2.3826 -0.0000 -0.0000 0.0000 -63.1596 -20.1713 2.0700 51.8360 -53.7097 -27.6473 -0.0000 -0.0000 55.5581 32.8621 53.9405 27.5746 -7.1250 0.0000 -0.0000 -76.0071 84.4217 -70.5066 -0.0000 -0.0000 0.0000 50.7677 27.5479 66.2737 -55.4144 54.9587 -30.5550 0.0000 0.0000 6.2916 -38.0594 32.2346 -22.6664 7.1250 -0.0000 -0.0000 -3.3588 8.6545 -3.8321
0.00 0.00 0.00 -5.1894 15.4690 21.5730 0.0000 0.0000 0.0000 -16.4214 -9.6042 -55.8691 7.1088 15.4228 49.2845 0.0828 13.3740 10.3852 1.3081 7.2451 20.4437 0.0000 0.0000 0.0000 22.6682 -0.3461 -42.8654 -7.8156 -15.9820 51.8959 4.9289 -38.9084 1.1907 -3.7107 -11.7651 34.9060 1.1676 3.1319 10.9103 -1.4534 4.2661 -5.1664 -3.1143 1.8823 -11.5440 4.7849 14.7455 -8.8143 -1.9498 19.2420 1.1520 -0.3607 9.5767 2.5176 0.0000 0.0000 0.0000 -63.6374 -20.2316 2.6975 51.8532 -53.7161 -27.6612 -0.0000 -0.0000 55.5364 33.0947 53.9650 27.7915 -7.1250 0.0000 -0.0000 -76.6554 84.5138 -71.2352 0.0000 0.0000 0.0000 50.4266 26.8186 66.1552 -55.5301 54.9961 -30.6497 0.0000 0.0000 6.2542 -38.3178 32.1153 -22.7883 7.1250 -0.0000 -0.0000 -3.5293 8.6138 -4.0252
0.00 0.00 0.00 -4.8787 16.4781 21.4246 0.0000 0.0000 0.0000 -17.0453 -9.8645 -54.9165 7.0200 15.3487 48.9501 0.1145 13.0243 10.5389 1.2781 7.1647 20.2041 0.0000 0.0000 0.0000 21.7567 0.2293 -42.2693 -7.9539 -16.0852 52.3964 3.9865 -33.9049 -23.9624 -9.3663 -17.0378 57.3486 0.6581 2.9768 10.7692 -1.3904 3.9825 -5.1789 -2.6956 1.7895 -11.5280 4.7159 14.5724 -8.9426 -1.5521 18.9965 1.5547 -0.2228 9.4633 2.6187 0.0000 0.0000 0.0000 -63.9496 -20.3220 3.4794 51.8305 -53.7076 -27.6429 -0.0000 -0.0000 55.5729 32.8208 54.1881 27.6111 -7.1250 0.0000 -0.0000 -78.4956 84.3820 -72.9112 0.0000 0.0000 0.0000 50.1967 26.0829 66.0069 -55.6254 55.0268 -30.7278 0.0000 0.0000 6.1263 -38.0896 32.1223 -22.6250 7.1250 -0.0000 -0.0000 -3.4039 8.5407 -3.8780
0.00 0.00 0.00 -4.7618 17.4358 21.2567 0.0000 0.0000 0.0000 -17.3341 -10.1604 -54.2074 6.9905 15.3238 48.8382 0.0903 12.7740 10.0979 1.3802 7.4340 21.0077 0.0000 0.0000 0.0000 21.0156 1.1849 -41.7270 -8.1326 -16.2159 53.0388 -2.4393 -17.1893 -39.5481 -11.6826 -18.2532 64.9792 0.3414 2.8125 10.8686 -1.3177 3.7188 -5.2359 -2.3962 1.6873 -11.6897 4.6293 14.4397 -8.9658 -1.1606 18.8107 1.7489 -0.0991 9.3819 2.6312 -0.0000 0.0000 0.0000 -64.2053 -20.5360 4.0965 51.7668 -53.6837 -27.5915 -0.0000 -0.0000 55.5578 32.5258 54.1386 27.3307 -7.1250 0.0000 -0.0000 -77.3914 84.2679 -71.7098 -0.0000 0.0000 0.0000 50.1249 25.4936 65.7847 -55.4711 54.9771 -30.6015 0.0000 0.0000 6.2691 -37.8044 32.3614 -22.5509 7.1250 -0.0000 -0.0000 -3.1884 8.6955 -3.6390
